<svg id="Layer_1" data-name="Layer 1" xmlns="http://www.w3.org/2000/svg" viewBox="0 0 512 512"><title>Free</title><path d="M480.641,228.773l-37.13-43.568a20.5,20.5,0,0,1-4.859-11.742l-4.557-57.057a41.8,41.8,0,0,0-38.5-38.5l-57.057-4.552a20.528,20.528,0,0,1-11.75-4.865L283.224,31.362v0a41.8,41.8,0,0,0-54.448,0L185.214,68.484a20.514,20.514,0,0,1-11.75,4.867L116.406,77.9a41.806,41.806,0,0,0-38.505,38.5l-4.547,57.055a20.523,20.523,0,0,1-4.87,11.747L31.359,228.773a41.8,41.8,0,0,0,0,54.451l37.125,43.568a20.516,20.516,0,0,1,4.865,11.745l4.557,57.057a41.8,41.8,0,0,0,38.5,38.505l57.052,4.547a20.588,20.588,0,0,1,11.755,4.87l43.563,37.125a41.793,41.793,0,0,0,54.448,0l43.568-37.125a20.516,20.516,0,0,1,11.745-4.865l57.057-4.557a41.8,41.8,0,0,0,38.505-38.5l4.547-57.052a20.588,20.588,0,0,1,4.87-11.755l37.125-43.562A41.8,41.8,0,0,0,480.641,228.773ZM464.4,269.391l-37.12,43.557a41.746,41.746,0,0,0-9.9,23.891L412.833,393.9A20.553,20.553,0,0,1,393.9,412.828l-57.062,4.557a41.7,41.7,0,0,0-23.88,9.891L269.391,464.4a20.553,20.553,0,0,1-26.781,0l-43.557-37.12a41.746,41.746,0,0,0-23.891-9.9L118.1,412.833A20.553,20.553,0,0,1,99.172,393.9l-4.557-57.062a41.7,41.7,0,0,0-9.891-23.88L47.6,269.391a20.549,20.549,0,0,1,0-26.779l37.12-43.562a41.732,41.732,0,0,0,9.9-23.888L99.167,118.1A20.562,20.562,0,0,1,118.1,99.169l57.057-4.552a41.7,41.7,0,0,0,23.885-9.9L242.609,47.6a20.565,20.565,0,0,1,26.781,0l43.563,37.128a41.713,41.713,0,0,0,23.885,9.893L393.9,99.169A20.553,20.553,0,0,1,412.828,118.1l4.557,57.06a41.7,41.7,0,0,0,9.891,23.883L464.4,242.612A20.549,20.549,0,0,1,464.4,269.391Z" id="id_111"></path><path d="M224,202.667H197.333a10.667,10.667,0,0,0-10.667,10.667v85.333a10.667,10.667,0,0,0,21.333,0V272.2l29.307,33.495a10.667,10.667,0,1,0,16.052-14.052l-22.5-25.714A32,32,0,0,0,224,202.667Zm0,42.667H208V224h16a10.667,10.667,0,1,1,0,21.333Z" id="id_112"></path><path d="M314.667,224a10.667,10.667,0,0,0,0-21.333H277.333a10.667,10.667,0,0,0-10.667,10.667v85.333a10.667,10.667,0,0,0,10.667,10.667h37.333a10.667,10.667,0,0,0,0-21.333H288V266.667h21.333a10.667,10.667,0,1,0,0-21.333H288V224Z" id="id_113"></path><path d="M165.333,202.667H128a10.667,10.667,0,0,0-10.667,10.667v85.333a10.667,10.667,0,0,0,21.333,0v-32H160a10.667,10.667,0,0,0,0-21.333H138.667V224h26.667a10.667,10.667,0,1,0,0-21.333Z" id="id_114"></path><path d="M384,224a10.667,10.667,0,1,0,0-21.333H346.667A10.667,10.667,0,0,0,336,213.333v85.333a10.667,10.667,0,0,0,10.667,10.667H384A10.667,10.667,0,1,0,384,288H357.333V266.667h21.333a10.667,10.667,0,0,0,0-21.333H357.333V224Z" id="id_115"></path></svg>