<svg width="64" height="64" viewBox="0 0 64 64" fill="none" xmlns="http://www.w3.org/2000/svg">
<path d="M15.51 57.79L32 49.61L49.17 58.3L46.19 39.53L59.37 25.84L40.9901 22.87L32 5.88L23.25 23.18L4.55005 26.1L18.11 39.53L15.51 57.79Z" fill="#000000" id="id_105"></path>
<path d="M49.3 60.13C49.06 60.1272 48.8239 60.069 48.61 59.96L32 51.23L15.39 60C15.1414 60.1284 14.862 60.1851 14.583 60.1639C14.304 60.1428 14.0364 60.0445 13.81 59.88C13.5842 59.7169 13.4091 59.4933 13.3047 59.235C13.2003 58.9768 13.171 58.6943 13.22 58.42L16.39 39.92L2.99999 26.79C2.79916 26.5948 2.657 26.3473 2.58961 26.0754C2.52221 25.8036 2.53227 25.5183 2.61865 25.2519C2.70503 24.9854 2.86428 24.7485 3.07837 24.5679C3.29245 24.3873 3.55282 24.2703 3.82999 24.23L22.4 21.53L30.66 4.71005C30.7822 4.45867 30.9727 4.24674 31.2096 4.09847C31.4466 3.95021 31.7205 3.87158 32 3.87158C32.2795 3.87158 32.5534 3.95021 32.7903 4.09847C33.0273 4.24674 33.2178 4.45867 33.34 4.71005L41.65 21.53L60.22 24.23C60.4972 24.2703 60.7575 24.3873 60.9716 24.5679C61.1857 24.7485 61.3449 24.9854 61.4313 25.2519C61.5177 25.5183 61.5278 25.8036 61.4604 26.0754C61.393 26.3473 61.2508 26.5948 61.05 26.79L47.61 39.88L50.78 58.38C50.8146 58.595 50.8023 58.8148 50.744 59.0246C50.6857 59.2343 50.5827 59.4289 50.4422 59.5952C50.3016 59.7614 50.1267 59.8952 49.9296 59.9876C49.7324 60.0799 49.5177 60.1285 49.3 60.13V60.13ZM32 48C32.2433 48.0017 32.483 48.0599 32.7 48.17L47.31 55.86L44.52 39.61C44.4871 39.3676 44.5136 39.1208 44.5972 38.8908C44.6808 38.6609 44.819 38.4547 45 38.29L56.78 26.76L40.44 24.39C40.1993 24.3552 39.9706 24.2624 39.7738 24.1195C39.5769 23.9767 39.4178 23.7881 39.31 23.57L32 8.76005L24.69 23.57C24.5822 23.7881 24.4231 23.9767 24.2262 24.1195C24.0294 24.2624 23.8007 24.3552 23.56 24.39L7.21999 26.76L19.05 38.29C19.222 38.4596 19.3509 38.668 19.4257 38.8977C19.5005 39.1274 19.5191 39.3717 19.48 39.61L16.69 55.89L31.3 48.2C31.5144 48.0795 31.7542 48.0109 32 48V48Z" fill="#000000" id="id_106"></path>
</svg>